# Canonical semantic room model
# Generated from spatial_model.json (modelId model-b845e69e-c753-58a2-b757-10c5039ecb95)
# Classification: final_private_capture
# Units: metres. Right-handed, +Y up, X/Z plan axes.
# Group names are the same stable surface IDs used by the JSON and the plan.
mtllib room_model.mtl

v 2.696893 0.000000 -2.730183
v 3.208905 0.000000 4.443175
v 3.208905 2.656160 4.443175
v 2.696893 2.656160 -2.730183
v 3.208905 0.000000 4.443175
v -0.460089 0.000000 4.618453
v -0.460089 2.656160 4.618453
v 3.208905 2.656160 4.443175
v -0.460089 0.000000 4.618453
v -0.699692 0.000000 4.618453
v -0.699692 2.656160 4.618453
v -0.460089 2.656160 4.618453
v -0.699692 0.000000 4.618453
v -0.835055 0.000000 3.950979
v -0.835055 2.656160 3.950979
v -0.699692 2.656160 4.618453
v -0.835055 0.000000 3.950979
v -0.843049 0.000000 -2.370774
v -0.843049 2.656160 -2.370774
v -0.835055 2.656160 3.950979
v -0.843049 0.000000 -2.370774
v 0.525926 0.000000 -2.814870
v 0.525926 2.656160 -2.814870
v -0.843049 2.656160 -2.370774
v 0.525926 0.000000 -2.814870
v 1.576535 0.000000 -2.871457
v 1.576535 2.656160 -2.871457
v 0.525926 2.656160 -2.814870
v 1.576535 0.000000 -2.871457
v 2.696893 0.000000 -2.730183
v 2.696893 2.656160 -2.730183
v 1.576535 2.656160 -2.871457
v 2.696893 0.000000 -2.730183
v 3.208905 0.000000 4.443175
v -0.460089 0.000000 4.618453
v -0.699692 0.000000 4.618453
v -0.835055 0.000000 3.950979
v -0.843049 0.000000 -2.370774
v 0.525926 0.000000 -2.814870
v 1.576535 0.000000 -2.871457
v 1.576535 2.656160 -2.871457
v 0.525926 2.656160 -2.814870
v -0.843049 2.656160 -2.370774
v -0.835055 2.656160 3.950979
v -0.699692 2.656160 4.618453
v -0.460089 2.656160 4.618453
v 3.208905 2.656160 4.443175
v 2.696893 2.656160 -2.730183

g wall-001
usemtl observed
f 1 2 3 4

g wall-002
usemtl observed
f 5 6 7 8

g wall-003
usemtl observed
f 9 10 11 12

g wall-004
usemtl observed
f 13 14 15 16

g wall-005
usemtl observed
f 17 18 19 20

g wall-006
usemtl observed
f 21 22 23 24

g wall-007
usemtl observed
f 25 26 27 28

g wall-008
usemtl observed
f 29 30 31 32

g floor-001
usemtl observed
f 33 34 35 36 37 38 39 40

g ceiling-001
usemtl observed
f 41 42 43 44 45 46 47 48
