# Canonical semantic room model
# Generated from spatial_model.json (modelId model-278317ef-dfb7-5537-b814-a1d098bcce9b)
# Classification: final_private_capture
# Units: metres. Right-handed, +Y up, X/Z plan axes.
# Group names are the same stable surface IDs used by the JSON and the plan.
mtllib room_model.mtl

v 2.219972 0.000000 -0.791559
v 2.167587 0.000000 0.512746
v 2.167587 2.671629 0.512746
v 2.219972 2.671629 -0.791559
v 2.167587 0.000000 0.512746
v -1.780994 0.000000 0.512746
v -1.780994 2.671629 0.512746
v 2.167587 2.671629 0.512746
v -1.780994 0.000000 0.512746
v -3.424131 0.000000 -3.384453
v -3.424131 2.671629 -3.384453
v -1.780994 2.671629 0.512746
v -3.424131 0.000000 -3.384453
v -3.424131 0.000000 -3.531244
v -3.424131 2.671629 -3.531244
v -3.424131 2.671629 -3.384453
v -3.424131 0.000000 -3.531244
v 0.145706 0.000000 -5.046974
v 0.145706 2.671629 -5.046974
v -3.424131 2.671629 -3.531244
v 0.145706 0.000000 -5.046974
v 0.759347 0.000000 -4.142975
v 0.759347 2.671629 -4.142975
v 0.145706 2.671629 -5.046974
v 0.759347 0.000000 -4.142975
v 2.219972 0.000000 -0.791559
v 2.219972 2.671629 -0.791559
v 0.759347 2.671629 -4.142975
v 2.219972 0.000000 -0.791559
v 2.167587 0.000000 0.512746
v -1.780994 0.000000 0.512746
v -3.424131 0.000000 -3.384453
v -3.424131 0.000000 -3.531244
v 0.145706 0.000000 -5.046974
v 0.759347 0.000000 -4.142975
v 0.759347 2.671629 -4.142975
v 0.145706 2.671629 -5.046974
v -3.424131 2.671629 -3.531244
v -3.424131 2.671629 -3.384453
v -1.780994 2.671629 0.512746
v 2.167587 2.671629 0.512746
v 2.219972 2.671629 -0.791559

g wall-001
usemtl inferred
f 1 2 3 4

g wall-002
usemtl inferred
f 5 6 7 8

g wall-003
usemtl observed
f 9 10 11 12

g wall-004
usemtl observed
f 13 14 15 16

g wall-005
usemtl observed
f 17 18 19 20

g wall-006
usemtl observed
f 21 22 23 24

g wall-007
usemtl observed
f 25 26 27 28

g floor-001
usemtl observed
f 29 30 31 32 33 34 35

g ceiling-001
usemtl observed
f 36 37 38 39 40 41 42
